<?xml version="1.0" encoding="UTF-8" standalone="no"?>
<!-- Created with Inkscape (http://www.inkscape.org/) -->

<svg
   width="167.81mm"
   height="111.62008mm"
   viewBox="0 0 167.80998 111.62008"
   version="1.1"
   id="svg1"
   xml:space="preserve"
   xmlns="http://www.w3.org/2000/svg"
   xmlns:svg="http://www.w3.org/2000/svg"><defs
     id="defs1" /><rect
     style="font-variation-settings:'wght' 700;fill:#ffd5e5;fill-opacity:1;stroke:none;stroke-width:1.23314;stroke-linecap:round;stroke-linejoin:round;stroke-dasharray:none;stroke-dashoffset:0;stroke-opacity:1"
     id="rect10"
     width="167.81"
     height="111.62009"
     x="-2.472352e-15"
     y="2.1667033e-15"
     rx="5"
     ry="5" /><rect
     style="font-variation-settings:'wght' 700;fill:#c6afe9;fill-opacity:1;stroke-width:0.18695"
     id="rect10-9"
     width="48.897728"
     height="73.054352"
     x="108.08878"
     y="9.5636444"
     rx="4"
     ry="4" /><g
     id="g45"
     transform="matrix(0.26458333,0,0,0.26458333,227.04722,8.6265712)"><path
       id="path20"
       d="m -798.32857,194.81931 c -6.23147,0 -12.3287,-3.07299 -15.9351,-8.72742 -5.6024,-8.79029 -3.01758,-20.44973 5.77524,-26.05213 l 94.66347,-60.31674 -94.66347,-60.310035 c -8.78609,-5.592389 -11.37764,-17.261889 -5.77524,-26.047981 5.60164,-8.7969717 17.27446,-11.3717231 26.05803,-5.779395 l 119.64716,76.21909 c 5.43218,3.466316 8.73074,9.467948 8.73074,15.918321 0,6.4411 -3.29856,12.44614 -8.73074,15.91913 l -119.64716,76.21908 c -3.13834,2.01456 -6.65416,2.95808 -10.12293,2.95808"
       style="fill:#ffffff;fill-opacity:1;fill-rule:nonzero;stroke:none;stroke-width:0.838685" /><path
       id="path21"
       d="m -681.8894,194.81931 c -6.23058,0 -12.32789,-3.07299 -15.93503,-8.72742 -5.60164,-8.79029 -3.01678,-20.44973 5.77938,-26.05213 l 94.66347,-60.31674 -94.66347,-60.310035 c -8.78609,-5.592389 -11.38102,-17.261889 -5.77938,-26.047981 5.60238,-8.7969717 17.27862,-11.3717231 26.05885,-5.779395 l 119.64715,76.21909 c 5.4347,3.466316 8.73074,9.467948 8.73074,15.918321 0,6.4411 -3.29604,12.44614 -8.73074,15.90906 l -119.64715,76.22915 c -3.13502,2.01456 -6.65084,2.95808 -10.12382,2.95808"
       style="fill:#ffffff;fill-opacity:1;fill-rule:nonzero;stroke:none;stroke-width:0.838685" /><path
       id="path22"
       d="m -565.45186,194.81931 c -6.22814,0 -12.33545,-3.07299 -15.93511,-8.72742 -5.59905,-8.79029 -3.00751,-20.44973 5.77858,-26.05213 l 94.66354,-60.31674 -94.66354,-60.310035 c -8.78609,-5.592389 -11.37763,-17.261889 -5.77858,-26.047981 5.5949,-8.7969717 17.27114,-11.3717231 26.05805,-5.779395 l 119.64048,76.21909 c 5.44137,3.466316 8.7374,9.467948 8.7374,15.918321 0,6.4411 -3.29603,12.44614 -8.7374,15.90906 l -119.64048,76.22915 c -3.14508,2.01456 -6.65078,2.95808 -10.12294,2.95808"
       style="fill:#ffffff;fill-opacity:1;fill-rule:nonzero;stroke:none;stroke-width:0.838685" /></g><path
     d="m 16.554794,80.525942 q -1.789158,0 -3.084756,-0.555902 -1.275033,-0.575754 -2.344415,-1.727264 l 2.097634,-2.005216 q 0.699212,0.774292 1.542379,1.211071 0.863731,0.416926 1.994809,0.416926 1.028252,0 1.583509,-0.357365 0.57582,-0.357365 0.57582,-0.992681 0,-0.575755 -0.37017,-0.93312 -0.370171,-0.357365 -0.987122,-0.615462 -0.596387,-0.258098 -1.336728,-0.496341 -0.719777,-0.238243 -1.439553,-0.536047 -0.719777,-0.317659 -1.336728,-0.774291 -0.596386,-0.476487 -0.966557,-1.171364 -0.370171,-0.71473 -0.370171,-1.786826 0,-1.290485 0.637517,-2.223604 0.658081,-0.933121 1.809723,-1.409607 1.151643,-0.49634 2.652891,-0.49634 1.521814,0 2.776281,0.516193 1.275032,0.516194 2.097634,1.409607 l -2.097634,2.005215 q -0.658082,-0.655169 -1.336728,-0.972827 -0.658082,-0.317658 -1.501248,-0.317658 -0.843167,0 -1.336728,0.317658 -0.493561,0.297804 -0.493561,0.873559 0,0.536048 0.370171,0.87356 0.370171,0.317657 0.966556,0.555901 0.616952,0.238243 1.336728,0.476486 0.740343,0.238244 1.460119,0.555902 0.719777,0.317658 1.316162,0.813998 0.616952,0.476487 0.987123,1.230924 0.370171,0.734584 0.370171,1.826533 0,2.005216 -1.480684,3.156726 -1.480683,1.131656 -4.092444,1.131656 z m 8.186638,-0.21839 V 66.290898 h 3.228712 v 14.016654 z m 8.986924,0 V 66.290898 h 3.249277 v 14.016654 z m -7.05381,-5.856817 v -2.700092 h 8.123192 v 2.700092 z m 20.566781,6.09506 q -1.645203,0 -3.043627,-0.555901 -1.377857,-0.555901 -2.426674,-1.548582 -1.048818,-0.992681 -1.624639,-2.30302 -0.575822,-1.330193 -0.575822,-2.858921 0,-1.548581 0.575822,-2.858921 0.575821,-1.310339 1.604073,-2.283166 1.028252,-0.992681 2.406111,-1.528728 1.398422,-0.555902 3.043625,-0.555902 1.624639,0 3.002498,0.555902 1.398422,0.536047 2.426674,1.528728 1.048817,0.972827 1.624639,2.30302 0.575821,1.310339 0.575821,2.858921 0,1.528729 -0.575821,2.858921 -0.575822,1.310338 -1.604074,2.303019 -1.028252,0.972828 -2.426674,1.528729 -1.377859,0.555901 -2.981932,0.555901 z m -0.04113,-2.839067 q 1.295599,0 2.262155,-0.555901 0.987123,-0.555902 1.521814,-1.548583 0.534691,-1.012534 0.534691,-2.322873 0,-0.992681 -0.308476,-1.786825 -0.308476,-0.813999 -0.884296,-1.389754 -0.575822,-0.595608 -1.377859,-0.893412 -0.781471,-0.317658 -1.748029,-0.317658 -1.295597,0 -2.282719,0.555902 -0.966557,0.536047 -1.501248,1.528728 -0.534692,0.972827 -0.534692,2.303019 0,0.992681 0.308476,1.806679 0.308476,0.813998 0.863732,1.409607 0.575821,0.575755 1.377858,0.893413 0.802037,0.317658 1.768593,0.317658 z m 13.32787,2.600824 -4.668265,-14.016654 h 3.208146 l 3.413799,10.780514 h -1.254469 l 3.331538,-10.780514 h 2.5295 l 3.331537,10.780514 H 69.18595 l 3.393232,-10.780514 h 3.187582 l -4.668266,14.016654 h -2.5295 L 65.216896,69.527037 h 1.192773 l -3.352103,10.780515 z m 17.543741,0 V 66.290898 h 2.303284 l 5.717083,8.596616 h -1.172208 l 5.696517,-8.596616 h 2.32385 v 14.016654 h -3.228711 v -8.755445 l 0.57582,0.138975 -3.722273,5.598719 h -2.138764 l -3.701708,-5.598719 0.555257,-0.138975 v 8.755445 z m 18.201808,0 V 66.290898 h 3.228712 v 14.016654 z m 2.467806,0 V 77.60746 h 7.958668 v 2.700092 z m 0,-5.856817 v -2.600824 h 7.238888 v 2.600824 z m 0,-5.479598 v -2.680239 h 7.855848 v 2.680239 z m 12.423018,11.554805 q -0.80203,0 -1.33672,-0.536048 -0.53469,-0.536048 -0.53469,-1.290485 0,-0.794145 0.53469,-1.310339 0.53469,-0.536048 1.33672,-0.536048 0.82261,0 1.33674,0.536048 0.53469,0.516194 0.53469,1.310339 0,0.754437 -0.53469,1.290485 -0.51413,0.536048 -1.33674,0.536048 z m 11.35364,-0.21839 v -5.499453 q 0,-0.754437 -0.49356,-1.21107 -0.47299,-0.476487 -1.21333,-0.476487 -0.51413,0 -0.90487,0.21839 -0.39073,0.198537 -0.61694,0.595609 -0.22622,0.377218 -0.22622,0.873558 l -1.21334,-0.575754 q 0,-1.131657 0.49356,-1.985362 0.49356,-0.853706 1.37786,-1.310338 0.88429,-0.476487 2.03594,-0.476487 1.1722,0 2.0565,0.476487 0.8843,0.456632 1.3573,1.290485 0.49356,0.813998 0.49356,1.905947 v 6.174475 z m -6.60137,0 V 65.893826 h 3.14645 v 14.413726 z m 17.13243,0.21839 q -1.54237,0 -2.79684,-0.65517 -1.2339,-0.675022 -1.95368,-1.826533 -0.71978,-1.15151 -0.71978,-2.58097 0,-1.42946 0.71978,-2.561117 0.71978,-1.131656 1.95368,-1.786825 1.2339,-0.675023 2.79684,-0.675023 1.56295,0 2.79685,0.655169 1.23391,0.65517 1.95368,1.806679 0.71978,1.131657 0.71978,2.561117 0,1.42946 -0.71978,2.58097 -0.71977,1.151511 -1.95368,1.826533 -1.2339,0.65517 -2.79685,0.65517 z m 0,-2.759653 q 0.67866,0 1.19278,-0.277951 0.51413,-0.297805 0.78147,-0.813998 0.28791,-0.536048 0.28791,-1.211071 0,-0.675023 -0.28791,-1.171364 -0.28791,-0.516193 -0.80204,-0.794144 -0.49355,-0.297805 -1.17221,-0.297805 -0.65808,0 -1.1722,0.297805 -0.51413,0.277951 -0.80204,0.794144 -0.28791,0.516194 -0.28791,1.191217 0,0.65517 0.28791,1.191218 0.28791,0.516193 0.80204,0.813998 0.51412,0.277951 1.1722,0.277951 z m 9.83183,2.541263 -3.45492,-9.648858 h 3.08475 l 2.13877,7.008326 -0.90487,0.01986 2.36499,-7.02818 h 2.55007 l 2.38554,7.02818 -0.92543,-0.01986 2.15933,-7.008326 h 3.08476 l -3.45493,9.648858 h -2.57063 l -2.32385,-6.670815 h 0.78148 l -2.36499,6.670815 z"
     id="text1"
     style="font-size:20.2062px;font-family:Outfit;-inkscape-font-specification:'Outfit, @wght=700';font-variation-settings:'wght' 700;letter-spacing:0.547283px;word-spacing:2.7364px;fill:#534a61;stroke-width:0.321797"
     aria-label="SHOWME.how" /><rect
     style="font-variation-settings:'wght' 700;fill:#afe9c6;fill-opacity:1;stroke:none;stroke-width:1.0249;stroke-linecap:round;stroke-linejoin:round;stroke-dasharray:none;stroke-dashoffset:0;stroke-opacity:1"
     id="rect45"
     width="146.16301"
     height="13.739324"
     x="10.823494"
     y="88.317116" /></svg>
